Montserrat-ThinItalic.ufo
<glyph name="parenright" format="2">
  <advance width="311"/>
  <unicode hex="0029"/>
  <outline>
    <contour>
      <point x="33" y="-194" type="curve"/>
      <point x="53" y="-194" type="line"/>
      <point x="188" y="-27"/>
      <point x="278" y="246"/>
      <point x="278" y="493" type="curve" smooth="yes"/>
      <point x="278" y="574"/>
      <point x="264" y="665"/>
      <point x="238" y="742" type="curve"/>
      <point x="221" y="742" type="line"/>
      <point x="248" y="655"/>
      <point x="260" y="578"/>
      <point x="260" y="493" type="curve" smooth="yes"/>
      <point x="260" y="252"/>
      <point x="166" y="-31"/>
    </contour>
  </outline>
</glyph>
<glyph name="at" format="2">
  <advance width="1032"/>
  <unicode hex="0040"/>
  <outline>
    <contour>
      <point x="432" y="-197" type="curve" smooth="yes"/>
      <point x="509" y="-197"/>
      <point x="583" y="-180"/>
      <point x="638" y="-151" type="curve"/>
      <point x="633" y="-131" type="line"/>
      <point x="583" y="-160"/>
      <point x="511" y="-177"/>
      <point x="436" y="-177" type="curve" smooth="yes"/>
      <point x="198" y="-177"/>
      <point x="67" y="-37"/>
      <point x="67" y="165" type="curve" smooth="yes"/>
      <point x="67" y="446"/>
      <point x="268" y="684"/>
      <point x="580" y="684" type="curve" smooth="yes"/>
      <point x="833" y="684"/>
      <point x="963" y="546"/>
      <point x="963" y="345" type="curve" smooth="yes"/>
      <point x="963" y="174"/>
      <point x="878" y="16"/>
      <point x="785" y="16" type="curve" smooth="yes"/>
      <point x="744" y="16"/>
      <point x="718" y="37"/>
      <point x="730" y="99" type="curve" smooth="yes"/>
      <point x="813" y="517" type="line"/>
      <point x="793" y="517" type="line"/>
      <point x="755" y="327" type="line"/>
      <point x="752" y="250" type="line"/>
      <point x="726" y="180" type="line"/>
      <point x="708" y="89" type="line" smooth="yes"/>
      <point x="697" y="34"/>
      <point x="729" y="-3"/>
      <point x="783" y="-3" type="curve" smooth="yes"/>
      <point x="889" y="-3"/>
      <point x="983" y="160"/>
      <point x="983" y="343" type="curve" smooth="yes"/>
      <point x="983" y="558"/>
      <point x="841" y="703"/>
      <point x="582" y="703" type="curve" smooth="yes"/>
      <point x="249" y="703"/>
      <point x="47" y="450"/>
      <point x="47" y="166" type="curve" smooth="yes"/>
      <point x="47" y="-49"/>
      <point x="190" y="-197"/>
    </contour>
    <contour>
      <point x="474" y="-3" type="curve" smooth="yes"/>
      <point x="645" y="-3"/>
      <point x="763" y="133"/>
      <point x="762" y="312" type="curve" smooth="yes"/>
      <point x="761" y="442"/>
      <point x="684" y="520"/>
      <point x="546" y="520" type="curve" smooth="yes"/>
      <point x="376" y="520"/>
      <point x="254" y="386"/>
      <point x="254" y="207" type="curve" smooth="yes"/>
      <point x="254" y="78"/>
      <point x="339" y="-3"/>
    </contour>
    <contour>
      <point x="477" y="16" type="curve" smooth="yes"/>
      <point x="349" y="16"/>
      <point x="274" y="86"/>
      <point x="274" y="208" type="curve" smooth="yes"/>
      <point x="274" y="376"/>
      <point x="388" y="501"/>
      <point x="543" y="501" type="curve" smooth="yes"/>
      <point x="671" y="501"/>
      <point x="746" y="431"/>
      <point x="746" y="309" type="curve" smooth="yes"/>
      <point x="746" y="140"/>
      <point x="632" y="16"/>
    </contour>
  </outline>
</glyph>
<glyph name="H" format="2">
  <advance width="816"/>
  <unicode hex="0048"/>
  <anchor x="356" y="0" name="bottom"/>
  <anchor x="464" y="538" name="center"/>
  <anchor x="496" y="700" name="top"/>
  <outline>
    <contour>
      <point x="751" y="700" type="line"/>
      <point x="611" y="0" type="line"/>
      <point x="631" y="0" type="line"/>
      <point x="771" y="700" type="line"/>
    </contour>
    <contour>
      <point x="101" y="0" type="line"/>
      <point x="241" y="700" type="line"/>
      <point x="221" y="700" type="line"/>
      <point x="81" y="0" type="line"/>
    </contour>
    <contour>
      <point x="685" y="346" type="line"/>
      <point x="689" y="365" type="line"/>
      <point x="169" y="365" type="line"/>
      <point x="165" y="346" type="line"/>
    </contour>
  </outline>
</glyph>
<glyph name="bracketright" format="2">
  <advance width="288"/>
  <unicode hex="005D"/>
  <outline>
    <contour>
      <point x="66" y="-194" type="line"/>
      <point x="253" y="742" type="line"/>
      <point x="123" y="742" type="line"/>
      <point x="119" y="723" type="line"/>
      <point x="229" y="723" type="line"/>
      <point x="50" y="-175" type="line"/>
      <point x="-60" y="-175" type="line"/>
      <point x="-64" y="-194" type="line"/>
    </contour>
  </outline>
</glyph>
<glyph name="asciicircum" format="2">
  <advance width="562"/>
  <unicode hex="005E"/>
  <outline>
    <contour>
      <point x="76" y="145" type="line"/>
      <point x="99" y="145" type="line"/>
      <point x="343" y="542" type="line"/>
      <point x="335" y="542" type="line"/>
      <point x="419" y="145" type="line"/>
      <point x="440" y="145" type="line"/>
      <point x="351" y="555" type="line"/>
      <point x="329" y="555" type="line"/>
    </contour>
  </outline>
</glyph>
<glyph name="h" format="2">
  <advance width="668"/>
  <unicode hex="0068"/>
  <anchor x="283" y="0" name="bottom"/>
  <anchor x="263" y="630" name="center"/>
  <anchor x="221" y="742" name="top"/>
  <anchor x="279" y="517" name="topright"/>
  <outline>
    <contour>
      <point x="393" y="520" type="curve" smooth="yes"/>
      <point x="284" y="520"/>
      <point x="195" y="472"/>
      <point x="146" y="362" type="curve"/>
      <point x="156" y="367" type="line"/>
      <point x="231" y="742" type="line"/>
      <point x="211" y="742" type="line"/>
      <point x="63" y="0" type="line"/>
      <point x="83" y="0" type="line"/>
      <point x="140" y="287" type="line" smooth="yes"/>
      <point x="168" y="427"/>
      <point x="260" y="501"/>
      <point x="391" y="501" type="curve" smooth="yes"/>
      <point x="519" y="501"/>
      <point x="572" y="426"/>
      <point x="548" y="305" type="curve" smooth="yes"/>
      <point x="487" y="0" type="line"/>
      <point x="507" y="0" type="line"/>
      <point x="568" y="305" type="line" smooth="yes"/>
      <point x="593" y="431"/>
      <point x="536" y="520"/>
    </contour>
  </outline>
</glyph>
<glyph name="o" format="2">
  <advance width="610"/>
  <unicode hex="006F"/>
  <guideline x="525" y="285" angle="90"/>
  <anchor x="253" y="0" name="bottom"/>
  <anchor x="305" y="259" name="center"/>
  <anchor x="338" y="0" name="ogonek"/>
  <anchor x="356" y="517" name="top"/>
  <anchor x="518" y="518" name="topright"/>
  <outline>
    <contour>
      <point x="269" y="-3" type="curve" smooth="yes"/>
      <point x="439" y="-3"/>
      <point x="561" y="130"/>
      <point x="561" y="310" type="curve" smooth="yes"/>
      <point x="561" y="439"/>
      <point x="476" y="520"/>
      <point x="341" y="520" type="curve" smooth="yes"/>
      <point x="171" y="520"/>
      <point x="49" y="386"/>
      <point x="49" y="207" type="curve" smooth="yes"/>
      <point x="49" y="78"/>
      <point x="134" y="-3"/>
    </contour>
    <contour>
      <point x="272" y="16" type="curve" smooth="yes"/>
      <point x="144" y="16"/>
      <point x="69" y="86"/>
      <point x="69" y="208" type="curve" smooth="yes"/>
      <point x="69" y="376"/>
      <point x="183" y="501"/>
      <point x="338" y="501" type="curve" smooth="yes"/>
      <point x="466" y="501"/>
      <point x="541" y="431"/>
      <point x="541" y="309" type="curve" smooth="yes"/>
      <point x="541" y="140"/>
      <point x="427" y="16"/>
    </contour>
  </outline>
</glyph>
<glyph name="v" format="2">
  <advance width="508"/>
  <unicode hex="0076"/>
  <anchor x="203" y="0" name="bottom"/>
  <anchor x="306" y="517" name="top"/>
  <outline>
    <contour>
      <point x="193" y="0" type="line"/>
      <point x="213" y="0" type="line"/>
      <point x="554" y="517" type="line"/>
      <point x="530" y="517" type="line"/>
      <point x="201" y="14" type="line"/>
      <point x="209" y="14" type="line"/>
      <point x="79" y="517" type="line"/>
      <point x="58" y="517" type="line"/>
    </contour>
  </outline>
</glyph>
<glyph name="currency" format="2">
  <advance width="700"/>
  <unicode hex="00A4"/>
  <outline>
    <contour>
      <point x="170" y="494" type="line"/>
      <point x="185" y="508" type="line"/>
      <point x="64" y="629" type="line"/>
      <point x="50" y="615" type="line"/>
    </contour>
    <contour>
      <point x="552" y="494" type="line"/>
      <point x="672" y="615" type="line"/>
      <point x="658" y="629" type="line"/>
      <point x="537" y="508" type="line"/>
    </contour>
    <contour>
      <point x="658" y="6" type="line"/>
      <point x="672" y="20" type="line"/>
      <point x="552" y="141" type="line"/>
      <point x="537" y="127" type="line"/>
    </contour>
    <contour>
      <point x="64" y="6" type="line"/>
      <point x="185" y="127" type="line"/>
      <point x="170" y="141" type="line"/>
      <point x="50" y="20" type="line"/>
    </contour>
    <contour>
      <point x="361" y="46" type="curve" smooth="yes"/>
      <point x="517" y="46"/>
      <point x="644" y="168"/>
      <point x="644" y="316" type="curve" smooth="yes"/>
      <point x="644" y="466"/>
      <point x="517" y="589"/>
      <point x="361" y="589" type="curve" smooth="yes"/>
      <point x="207" y="589"/>
      <point x="81" y="466"/>
      <point x="81" y="316" type="curve" smooth="yes"/>
      <point x="81" y="168"/>
      <point x="207" y="46"/>
    </contour>
    <contour>
      <point x="361" y="66" type="curve" smooth="yes"/>
      <point x="218" y="66"/>
      <point x="101" y="179"/>
      <point x="101" y="316" type="curve" smooth="yes"/>
      <point x="101" y="455"/>
      <point x="218" y="569"/>
      <point x="361" y="569" type="curve" smooth="yes"/>
      <point x="506" y="569"/>
      <point x="624" y="455"/>
      <point x="624" y="316" type="curve" smooth="yes"/>
      <point x="624" y="179"/>
      <point x="506" y="66"/>
    </contour>
  </outline>
</glyph>
<glyph name="section" format="2">
  <advance width="471"/>
  <unicode hex="00A7"/>
  <outline>
    <contour>
      <point x="291" y="149" type="line"/>
      <point x="382" y="166"/>
      <point x="438" y="223"/>
      <point x="438" y="300" type="curve" smooth="yes"/>
      <point x="438" y="478"/>
      <point x="147" y="390"/>
      <point x="147" y="547" type="curve" smooth="yes"/>
      <point x="147" y="623"/>
      <point x="220" y="684"/>
      <point x="338" y="684" type="curve" smooth="yes"/>
      <point x="400" y="684"/>
      <point x="460" y="667"/>
      <point x="497" y="635" type="curve"/>
      <point x="511" y="650" type="line"/>
      <point x="476" y="683"/>
      <point x="407" y="703"/>
      <point x="339" y="703" type="curve" smooth="yes"/>
      <point x="210" y="703"/>
      <point x="127" y="634"/>
      <point x="127" y="546" type="curve" smooth="yes"/>
      <point x="127" y="371"/>
      <point x="418" y="458"/>
      <point x="418" y="299" type="curve" smooth="yes"/>
      <point x="418" y="227"/>
      <point x="363" y="174"/>
      <point x="269" y="162" type="curve"/>
    </contour>
    <contour>
      <point x="151" y="-103" type="curve" smooth="yes"/>
      <point x="282" y="-103"/>
      <point x="364" y="-37"/>
      <point x="364" y="55" type="curve" smooth="yes"/>
      <point x="364" y="226"/>
      <point x="73" y="149"/>
      <point x="73" y="302" type="curve" smooth="yes"/>
      <point x="73" y="369"/>
      <point x="127" y="423"/>
      <point x="216" y="437" type="curve"/>
      <point x="195" y="450" type="line"/>
      <point x="106" y="431"/>
      <point x="53" y="373"/>
      <point x="53" y="301" type="curve" smooth="yes"/>
      <point x="53" y="129"/>
      <point x="344" y="207"/>
      <point x="344" y="54" type="curve" smooth="yes"/>
      <point x="344" y="-26"/>
      <point x="272" y="-84"/>
      <point x="152" y="-84" type="curve" smooth="yes"/>
      <point x="80" y="-84"/>
      <point x="28" y="-59"/>
      <point x="-11" y="-18" type="curve"/>
      <point x="-26" y="-34" type="line"/>
      <point x="11" y="-74"/>
      <point x="72" y="-103"/>
    </contour>
  </outline>
</glyph>
<glyph name="registered" format="2">
  <advance width="824"/>
  <unicode hex="00AE"/>
  <outline>
    <contour>
      <point x="429" y="-3" type="curve" smooth="yes"/>
      <point x="628" y="-3"/>
      <point x="783" y="153"/>
      <point x="783" y="352" type="curve" smooth="yes"/>
      <point x="783" y="551"/>
      <point x="632" y="703"/>
      <point x="431" y="703" type="curve" smooth="yes"/>
      <point x="230" y="703"/>
      <point x="77" y="547"/>
      <point x="77" y="350" type="curve" smooth="yes"/>
      <point x="77" y="153"/>
      <point x="230" y="-3"/>
    </contour>
    <contour>
      <point x="580" y="142" type="line"/>
      <point x="604" y="142" type="line"/>
      <point x="499" y="304" type="line"/>
      <point x="475" y="304" type="line"/>
    </contour>
    <contour>
      <point x="429" y="16" type="curve" smooth="yes"/>
      <point x="241" y="16"/>
      <point x="96" y="164"/>
      <point x="96" y="350" type="curve" smooth="yes"/>
      <point x="96" y="536"/>
      <point x="241" y="684"/>
      <point x="431" y="684" type="curve" smooth="yes"/>
      <point x="621" y="684"/>
      <point x="764" y="540"/>
      <point x="764" y="352" type="curve" smooth="yes"/>
      <point x="764" y="164"/>
      <point x="617" y="16"/>
    </contour>
    <contour>
      <point x="301" y="142" type="line"/>
      <point x="321" y="142" type="line"/>
      <point x="321" y="292" type="line"/>
      <point x="451" y="292" type="line" smooth="yes"/>
      <point x="545" y="292"/>
      <point x="604" y="344"/>
      <point x="604" y="425" type="curve" smooth="yes"/>
      <point x="604" y="506"/>
      <point x="545" y="558"/>
      <point x="451" y="558" type="curve" smooth="yes"/>
      <point x="301" y="558" type="line"/>
    </contour>
    <contour>
      <point x="320" y="311" type="line"/>
      <point x="320" y="539" type="line"/>
      <point x="449" y="539" type="line" smooth="yes"/>
      <point x="534" y="539"/>
      <point x="584" y="497"/>
      <point x="584" y="425" type="curve" smooth="yes"/>
      <point x="584" y="353"/>
      <point x="534" y="311"/>
      <point x="449" y="311" type="curve" smooth="yes"/>
    </contour>
  </outline>
</glyph>
<glyph name="multiply" format="2">
  <advance width="560"/>
  <unicode hex="00D7"/>
  <outline>
    <contour>
      <point x="134" y="212" type="line"/>
      <point x="146" y="198" type="line"/>
      <point x="462" y="488" type="line"/>
      <point x="450" y="502" type="line"/>
    </contour>
    <contour>
      <point x="165" y="489" type="line"/>
      <point x="417" y="198" type="line"/>
      <point x="431" y="211" type="line"/>
      <point x="179" y="502" type="line"/>
    </contour>
  </outline>
</glyph>
<glyph name="IJ" format="2">
  <advance width="714"/>
  <unicode hex="0132"/>
  <guideline x="224" y="197" angle="90"/>
  <anchor x="255" y="700" name="top"/>
  <outline>
    <contour>
      <point x="289" y="-3" type="curve" smooth="yes"/>
      <point x="456" y="-3"/>
      <point x="553" y="91"/>
      <point x="593" y="290" type="curve" smooth="yes"/>
      <point x="675" y="700" type="line"/>
      <point x="655" y="700" type="line"/>
      <point x="574" y="294" type="line" smooth="yes"/>
      <point x="536" y="103"/>
      <point x="445" y="16"/>
      <point x="289" y="16" type="curve" smooth="yes"/>
      <point x="210" y="16"/>
      <point x="143" y="40"/>
      <point x="94" y="78" type="curve"/>
      <point x="81" y="61" type="line"/>
      <point x="130" y="24"/>
      <point x="201" y="-3"/>
    </contour>
    <contour>
      <point x="133" y="290" type="line"/>
      <point x="153" y="290" type="line"/>
      <point x="235" y="700" type="line"/>
      <point x="215" y="700" type="line"/>
    </contour>
  </outline>
</glyph>
<glyph name="Eng" format="2">
  <advance width="816"/>
  <unicode hex="014A"/>
  <outline>
    <contour>
      <point x="81" y="0" type="line"/>
      <point x="101" y="0" type="line"/>
      <point x="236" y="677" type="line"/>
      <point x="228" y="678" type="line"/>
      <point x="614" y="1" type="line"/>
      <point x="624" y="23" type="line"/>
      <point x="238" y="700" type="line"/>
      <point x="221" y="700" type="line"/>
    </contour>
    <contour>
      <point x="431" y="-197" type="curve" smooth="yes"/>
      <point x="537" y="-197"/>
      <point x="602" y="-145"/>
      <point x="630" y="-4" type="curve" smooth="yes"/>
      <point x="771" y="700" type="line"/>
      <point x="751" y="700" type="line"/>
      <point x="611" y="2" type="line" smooth="yes"/>
      <point x="584" y="-131"/>
      <point x="527" y="-178"/>
      <point x="434" y="-178" type="curve" smooth="yes"/>
      <point x="361" y="-178"/>
      <point x="307" y="-143"/>
      <point x="282" y="-88" type="curve"/>
      <point x="264" y="-98" type="line"/>
      <point x="289" y="-157"/>
      <point x="352" y="-197"/>
    </contour>
  </outline>
</glyph>
<glyph name="OE" format="2">
  <advance width="1112"/>
  <unicode hex="0152"/>
  <anchor x="535" y="0" name="bottom"/>
  <anchor x="675" y="700" name="top"/>
  <outline>
    <contour>
      <point x="392" y="0" type="curve" smooth="yes"/>
      <point x="531" y="0" type="line"/>
      <point x="535" y="19" type="line"/>
      <point x="394" y="19" type="line" smooth="yes"/>
      <point x="191" y="19"/>
      <point x="91" y="124"/>
      <point x="91" y="280" type="curve" smooth="yes"/>
      <point x="91" y="513"/>
      <point x="252" y="681"/>
      <point x="505" y="681" type="curve" smooth="yes"/>
      <point x="667" y="681" type="line"/>
      <point x="671" y="700" type="line"/>
      <point x="507" y="700" type="line" smooth="yes"/>
      <point x="240" y="700"/>
      <point x="71" y="523"/>
      <point x="71" y="280" type="curve" smooth="yes"/>
      <point x="71" y="113"/>
      <point x="183" y="0"/>
    </contour>
    <contour>
      <point x="525" y="0" type="line"/>
      <point x="991" y="0" type="line"/>
      <point x="995" y="19" type="line"/>
      <point x="549" y="19" type="line"/>
      <point x="681" y="681" type="line"/>
      <point x="1112" y="681" type="line"/>
      <point x="1116" y="700" type="line"/>
      <point x="665" y="700" type="line"/>
    </contour>
    <contour>
      <point x="609" y="346" type="line"/>
      <point x="1000" y="346" type="line"/>
      <point x="1004" y="365" type="line"/>
      <point x="613" y="365" type="line"/>
    </contour>
  </outline>
</glyph>
<glyph name="florin" format="2">
  <advance width="414"/>
  <unicode hex="0192"/>
  <outline>
    <contour>
      <point x="-73" y="-197" type="curve" smooth="yes"/>
      <point x="8" y="-197"/>
      <point x="61" y="-146"/>
      <point x="85" y="-70" type="curve" smooth="yes"/>
      <point x="270" y="503" type="line"/>
      <point x="273" y="514" type="line"/>
      <point x="305" y="613" type="line" smooth="yes"/>
      <point x="330" y="686"/>
      <point x="377" y="726"/>
      <point x="444" y="726" type="curve" smooth="yes"/>
      <point x="477" y="726"/>
      <point x="508" y="715"/>
      <point x="523" y="694" type="curve"/>
      <point x="540" y="708" type="line"/>
      <point x="520" y="733"/>
      <point x="485" y="745"/>
      <point x="448" y="745" type="curve" smooth="yes"/>
      <point x="366" y="745"/>
      <point x="311" y="694"/>
      <point x="286" y="618" type="curve" smooth="yes"/>
      <point x="66" y="-65" type="line" smooth="yes"/>
      <point x="42" y="-138"/>
      <point x="-7" y="-178"/>
      <point x="-71" y="-178" type="curve" smooth="yes"/>
      <point x="-107" y="-178"/>
      <point x="-133" y="-167"/>
      <point x="-152" y="-146" type="curve"/>
      <point x="-169" y="-160" type="line"/>
      <point x="-149" y="-185"/>
      <point x="-113" y="-197"/>
    </contour>
    <contour>
      <point x="148" y="498" type="line"/>
      <point x="443" y="498" type="line"/>
      <point x="449" y="517" type="line"/>
      <point x="154" y="517" type="line"/>
    </contour>
  </outline>
</glyph>
<glyph name="Omega" format="2">
  <advance width="910"/>
  <unicode hex="03A9"/>
  <outline>
    <contour>
      <point x="-42" y="0" type="line"/>
      <point x="281" y="0" type="line"/>
      <point x="285" y="19" type="line"/>
      <point x="175" y="93"/>
      <point x="127" y="172"/>
      <point x="127" y="310" type="curve" smooth="yes"/>
      <point x="127" y="537"/>
      <point x="288" y="684"/>
      <point x="514" y="684" type="curve" smooth="yes"/>
      <point x="702" y="684"/>
      <point x="818" y="591"/>
      <point x="818" y="420" type="curve" smooth="yes"/>
      <point x="818" y="203"/>
      <point x="678" y="76"/>
      <point x="529" y="19" type="curve"/>
      <point x="525" y="0" type="line"/>
      <point x="848" y="0" type="line"/>
      <point x="852" y="20" type="line"/>
      <point x="570" y="20" type="line"/>
      <point x="696" y="73"/>
      <point x="838" y="200"/>
      <point x="838" y="420" type="curve" smooth="yes"/>
      <point x="838" y="600"/>
      <point x="714" y="703"/>
      <point x="514" y="703" type="curve" smooth="yes"/>
      <point x="277" y="703"/>
      <point x="107" y="547"/>
      <point x="107" y="310" type="curve" smooth="yes"/>
      <point x="107" y="179"/>
      <point x="148" y="95"/>
      <point x="253" y="20" type="curve"/>
      <point x="-38" y="20" type="line"/>
    </contour>
  </outline>
</glyph>
<glyph name="Ze-cy" format="2">
  <advance width="623"/>
  <unicode hex="0417"/>
  <anchor x="246" y="0" name="bottom"/>
  <anchor x="397" y="700" name="top"/>
  <outline>
    <contour>
      <point x="238" y="-3" type="curve" smooth="yes"/>
      <point x="383" y="-3"/>
      <point x="531" y="85"/>
      <point x="531" y="219" type="curve" smooth="yes"/>
      <point x="531" y="315"/>
      <point x="458" y="372"/>
      <point x="333" y="372" type="curve"/>
      <point x="326" y="359" type="line"/>
      <point x="470" y="359"/>
      <point x="566" y="436"/>
      <point x="566" y="545" type="curve" smooth="yes"/>
      <point x="566" y="647"/>
      <point x="478" y="703"/>
      <point x="363" y="703" type="curve" smooth="yes"/>
      <point x="293" y="703"/>
      <point x="214" y="682"/>
      <point x="138" y="638" type="curve"/>
      <point x="145" y="621" type="line"/>
      <point x="218" y="664"/>
      <point x="295" y="684"/>
      <point x="361" y="684" type="curve" smooth="yes"/>
      <point x="466" y="684"/>
      <point x="546" y="635"/>
      <point x="546" y="544" type="curve" smooth="yes"/>
      <point x="546" y="445"/>
      <point x="459" y="375"/>
      <point x="324" y="375" type="curve" smooth="yes"/>
      <point x="186" y="375" type="line"/>
      <point x="182" y="356" type="line"/>
      <point x="319" y="356" type="line" smooth="yes"/>
      <point x="443" y="356"/>
      <point x="511" y="310"/>
      <point x="511" y="221" type="curve" smooth="yes"/>
      <point x="511" y="96"/>
      <point x="375" y="17"/>
      <point x="240" y="17" type="curve" smooth="yes"/>
      <point x="156" y="17"/>
      <point x="72" y="47"/>
      <point x="22" y="112" type="curve"/>
      <point x="7" y="101" type="line"/>
      <point x="60" y="30"/>
      <point x="148" y="-3"/>
    </contour>
  </outline>
</glyph>
<glyph name="el-cy" format="2">
  <advance width="613"/>
  <unicode hex="043B"/>
  <anchor x="425" y="0" name="#exit"/>
  <anchor x="425" y="0" name="bottomleft"/>
  <outline>
    <contour>
      <point x="-45" y="2" type="line"/>
      <point x="-31" y="-2"/>
      <point x="-23" y="-3"/>
      <point x="-12" y="-3" type="curve" smooth="yes"/>
      <point x="67" y="-3"/>
      <point x="122" y="92"/>
      <point x="185" y="343" type="curve" smooth="yes"/>
      <point x="226" y="506" type="line"/>
      <point x="217" y="498" type="line"/>
      <point x="533" y="498" type="line"/>
      <point x="526" y="506" type="line"/>
      <point x="425" y="0" type="line"/>
      <point x="445" y="0" type="line"/>
      <point x="549" y="517" type="line"/>
      <point x="209" y="517" type="line"/>
      <point x="166" y="349" type="line" smooth="yes"/>
      <point x="104" y="106"/>
      <point x="55" y="16"/>
      <point x="-15" y="16" type="curve" smooth="yes"/>
      <point x="-20" y="16"/>
      <point x="-29" y="18"/>
      <point x="-39" y="20" type="curve"/>
    </contour>
  </outline>
</glyph>
<glyph name="em-cy" format="2">
  <advance width="773"/>
  <unicode hex="043C"/>
  <anchor x="335" y="0" name="bottom"/>
  <anchor x="586" y="0" name="bottomleft"/>
  <anchor x="439" y="517" name="top"/>
  <outline>
    <contour>
      <point x="64" y="0" type="line"/>
      <point x="84" y="0" type="line"/>
      <point x="182" y="488" type="line"/>
      <point x="175" y="488" type="line"/>
      <point x="344" y="72" type="line"/>
      <point x="355" y="72" type="line"/>
      <point x="690" y="488" type="line"/>
      <point x="684" y="488" type="line"/>
      <point x="586" y="0" type="line"/>
      <point x="605" y="0" type="line"/>
      <point x="709" y="517" type="line"/>
      <point x="691" y="517" type="line"/>
      <point x="347" y="90" type="line"/>
      <point x="357" y="90" type="line"/>
      <point x="184" y="517" type="line"/>
      <point x="168" y="517" type="line"/>
    </contour>
  </outline>
</glyph>
<glyph name="pe-cy" format="2">
  <advance width="666"/>
  <unicode hex="043F"/>
  <anchor x="478" y="0" name="bottomleft"/>
  <outline>
    <contour>
      <point x="64" y="0" type="line"/>
      <point x="84" y="0" type="line"/>
      <point x="185" y="506" type="line"/>
      <point x="176" y="498" type="line"/>
      <point x="586" y="498" type="line"/>
      <point x="579" y="506" type="line"/>
      <point x="478" y="0" type="line"/>
      <point x="498" y="0" type="line"/>
      <point x="602" y="517" type="line"/>
      <point x="168" y="517" type="line"/>
    </contour>
  </outline>
</glyph>
<glyph name="che-cy" format="2">
  <advance width="577"/>
  <unicode hex="0447"/>
  <anchor x="389" y="0" name="bottomleft"/>
  <anchor x="506" y="0" name="bottomright"/>
  <anchor x="307" y="517" name="top"/>
  <outline>
    <contour>
      <point x="440" y="233" type="curve"/>
      <point x="443" y="253" type="line"/>
      <point x="363" y="221"/>
      <point x="291" y="205"/>
      <point x="232" y="205" type="curve" smooth="yes"/>
      <point x="130" y="205"/>
      <point x="73" y="253"/>
      <point x="91" y="341" type="curve" smooth="yes"/>
      <point x="126" y="517" type="line"/>
      <point x="106" y="517" type="line"/>
      <point x="71" y="343" type="line" smooth="yes"/>
      <point x="50" y="240"/>
      <point x="118" y="187"/>
      <point x="231" y="187" type="curve" smooth="yes"/>
      <point x="289" y="187"/>
      <point x="362" y="202"/>
    </contour>
    <contour>
      <point x="389" y="0" type="line"/>
      <point x="409" y="0" type="line"/>
      <point x="513" y="517" type="line"/>
      <point x="493" y="517" type="line"/>
    </contour>
  </outline>
</glyph>
<glyph name="e-cy" format="2">
  <advance width="565"/>
  <unicode hex="0454"/>
  <outline>
    <contour>
      <point x="393" y="262" type="line"/>
      <point x="74" y="262" type="line"/>
      <point x="70" y="244" type="line"/>
      <point x="389" y="244" type="line"/>
    </contour>
    <contour>
      <point x="281" y="-3" type="curve"/>
      <point x="357" y="-3"/>
      <point x="434" y="22"/>
      <point x="482" y="64" type="curve"/>
      <point x="471" y="79" type="line"/>
      <point x="420" y="38"/>
      <point x="351" y="15"/>
      <point x="282" y="15" type="curve" smooth="yes"/>
      <point x="156" y="15"/>
      <point x="75" y="91"/>
      <point x="75" y="210" type="curve" smooth="yes"/>
      <point x="75" y="366"/>
      <point x="216" y="501"/>
      <point x="383" y="501" type="curve" smooth="yes"/>
      <point x="450" y="501"/>
      <point x="510" y="479"/>
      <point x="545" y="440" type="curve"/>
      <point x="558" y="452" type="line"/>
      <point x="524" y="493"/>
      <point x="455" y="520"/>
      <point x="380" y="520" type="curve" smooth="yes"/>
      <point x="206" y="520"/>
      <point x="54" y="376"/>
      <point x="54" y="209" type="curve" smooth="yes"/>
      <point x="54" y="80"/>
      <point x="144" y="-3"/>
    </contour>
  </outline>
</glyph>
<glyph name="semisoftsign-cy" format="2">
  <advance width="567"/>
  <unicode hex="048D"/>
  <outline>
    <contour>
      <point x="58" y="417" type="line"/>
      <point x="398" y="417" type="line"/>
      <point x="401" y="436" type="line"/>
      <point x="61" y="436" type="line"/>
    </contour>
    <contour>
      <point x="340" y="322" type="curve" smooth="yes"/>
      <point x="179" y="322" type="line"/>
      <point x="218" y="517" type="line"/>
      <point x="198" y="517" type="line"/>
      <point x="94" y="0" type="line"/>
      <point x="279" y="0" type="line" smooth="yes"/>
      <point x="419" y="0"/>
      <point x="510" y="75"/>
      <point x="510" y="189" type="curve" smooth="yes"/>
      <point x="510" y="278"/>
      <point x="454" y="322"/>
    </contour>
    <contour>
      <point x="279" y="18" type="curve" smooth="yes"/>
      <point x="118" y="18" type="line"/>
      <point x="175" y="304" type="line"/>
      <point x="335" y="304" type="line" smooth="yes"/>
      <point x="441" y="304"/>
      <point x="491" y="267"/>
      <point x="491" y="189" type="curve" smooth="yes"/>
      <point x="491" y="86"/>
      <point x="406" y="18"/>
    </contour>
  </outline>
</glyph>
<glyph name="ertick-cy" format="2">
  <advance width="695"/>
  <unicode hex="048F"/>
  <anchor x="318" y="0" name="bottom"/>
  <anchor x="421" y="517" name="top"/>
  <outline>
    <contour>
      <point x="539" y="-49" type="line"/>
      <point x="412" y="172" type="line"/>
      <point x="395" y="161" type="line"/>
      <point x="521" y="-60" type="line"/>
    </contour>
    <component base="p" xOffset="4"/>
  </outline>
</glyph>
<glyph name="ghestroke-cy" format="2">
  <advance width="475"/>
  <unicode hex="0493"/>
  <outline>
    <contour>
      <point x="49" y="232" type="line"/>
      <point x="388" y="232" type="line"/>
      <point x="392" y="251" type="line"/>
      <point x="53" y="251" type="line"/>
    </contour>
    <component base="ge-cy" xOffset="13"/>
  </outline>
</glyph>
<glyph name="Kastroke-cy" format="2">
  <advance width="719"/>
  <unicode hex="049E"/>
  <anchor x="617" y="0" name="bottomleft"/>
  <anchor x="639" y="0" name="bottomright"/>
  <anchor x="462" y="700" name="top"/>
  <outline>
    <contour>
      <point x="82" y="575" type="line"/>
      <point x="432" y="575" type="line"/>
      <point x="436" y="594" type="line"/>
      <point x="86" y="594" type="line"/>
    </contour>
    <component base="Ka-cy" xOffset="36"/>
  </outline>
</glyph>
<glyph name="tedescender-cy" format="2">
  <advance width="432"/>
  <unicode hex="04AD"/>
  <anchor x="164" y="0" name="bottom"/>
  <anchor x="154" y="0" name="bottomleft"/>
  <anchor x="217" y="262" name="center"/>
  <anchor x="268" y="517" name="top"/>
  <outline>
    <contour>
      <point x="154" y="0" type="line"/>
      <point x="174" y="0" type="line"/>
      <point x="275" y="506" type="line"/>
      <point x="266" y="498" type="line"/>
      <point x="484" y="498" type="line"/>
      <point x="488" y="517" type="line"/>
      <point x="48" y="517" type="line"/>
      <point x="44" y="498" type="line"/>
      <point x="262" y="498" type="line"/>
      <point x="255" y="506" type="line"/>
    </contour>
    <contour>
      <point x="217" y="-121" type="line"/>
      <point x="237" y="-121" type="line"/>
      <point x="265" y="18" type="line"/>
      <point x="158" y="18" type="line"/>
      <point x="154" y="0" type="line"/>
      <point x="249" y="0" type="line"/>
      <point x="243" y="8" type="line"/>
    </contour>
  </outline>
</glyph>
<glyph name="ustrait-cy" format="2">
  <advance width="529"/>
  <unicode hex="04AF"/>
  <anchor x="215" y="5" name="center"/>
  <outline>
    <contour>
      <point x="226" y="10" type="line"/>
      <point x="206" y="10" type="line"/>
      <point x="165" y="-194" type="line"/>
      <point x="185" y="-194" type="line"/>
    </contour>
    <contour>
      <point x="208" y="-18" type="line"/>
      <point x="211" y="-18" type="line"/>
      <point x="564" y="517" type="line"/>
      <point x="540" y="517" type="line"/>
      <point x="211" y="14" type="line"/>
      <point x="219" y="14" type="line"/>
      <point x="89" y="517" type="line"/>
      <point x="68" y="517" type="line"/>
    </contour>
  </outline>
</glyph>
<glyph name="Cheverticalstroke-cy" format="2">
  <advance width="719"/>
  <unicode hex="04B8"/>
  <anchor x="510" y="0" name="bottomleft"/>
  <anchor x="647" y="0" name="bottomright"/>
  <anchor x="416" y="700" name="top"/>
  <outline>
    <contour>
      <point x="278" y="86" type="line"/>
      <point x="298" y="86" type="line"/>
      <point x="370" y="446" type="line"/>
      <point x="350" y="446" type="line"/>
    </contour>
    <component base="Che-cy"/>
  </outline>
</glyph>
<glyph name="cheverticalstroke-cy" format="2">
  <advance width="577"/>
  <unicode hex="04B9"/>
  <anchor x="389" y="0" name="bottomleft"/>
  <anchor x="506" y="0" name="bottomright"/>
  <anchor x="307" y="517" name="top"/>
  <outline>
    <contour>
      <point x="226" y="72" type="line"/>
      <point x="243" y="72" type="line"/>
      <point x="297" y="338" type="line"/>
      <point x="280" y="338" type="line"/>
    </contour>
    <component base="che-cy"/>
  </outline>
</glyph>
<glyph name="Enhook-cy" format="2">
  <advance width="817"/>
  <unicode hex="04C7"/>
  <outline>
    <contour>
      <point x="371" y="-159" type="line"/>
      <point x="438" y="-228"/>
      <point x="588" y="-203"/>
      <point x="612" y="-81" type="curve" smooth="yes"/>
      <point x="768" y="700" type="line"/>
      <point x="748" y="700" type="line"/>
      <point x="681" y="364" type="line"/>
      <point x="178" y="364" type="line"/>
      <point x="245" y="700" type="line"/>
      <point x="225" y="700" type="line"/>
      <point x="85" y="0" type="line"/>
      <point x="105" y="0" type="line"/>
      <point x="174" y="344" type="line"/>
      <point x="677" y="344" type="line"/>
      <point x="594" y="-74" type="line" smooth="yes"/>
      <point x="572" y="-182"/>
      <point x="451" y="-205"/>
      <point x="386" y="-146" type="curve"/>
    </contour>
  </outline>
</glyph>
<glyph name="hastroke-cy" format="2">
  <advance width="527"/>
  <unicode hex="04FF"/>
  <outline>
    <contour>
      <point x="103" y="257" type="line"/>
      <point x="420" y="257" type="line"/>
      <point x="424" y="276" type="line"/>
      <point x="107" y="276" type="line"/>
    </contour>
    <contour>
      <point x="-8" y="0" type="line"/>
      <point x="19" y="0" type="line"/>
      <point x="268" y="256" type="line"/>
      <point x="261" y="256" type="line"/>
      <point x="410" y="0" type="line"/>
      <point x="434" y="0" type="line"/>
      <point x="274" y="271" type="line"/>
      <point x="272" y="260" type="line"/>
      <point x="522" y="517" type="line"/>
      <point x="496" y="517" type="line"/>
      <point x="264" y="278" type="line"/>
      <point x="271" y="276" type="line"/>
      <point x="130" y="517" type="line"/>
      <point x="107" y="517" type="line"/>
      <point x="255" y="265" type="line"/>
      <point x="257" y="271" type="line"/>
    </contour>
  </outline>
</glyph>
<glyph name="endash" format="2">
  <advance width="500"/>
  <unicode hex="2013"/>
  <outline>
    <contour>
      <point x="-1" y="255" type="line"/>
      <point x="499" y="255" type="line"/>
      <point x="503" y="274" type="line"/>
      <point x="3" y="274" type="line"/>
    </contour>
  </outline>
</glyph>
<glyph name="emdash" format="2">
  <advance width="1000"/>
  <unicode hex="2014"/>
  <outline>
    <contour>
      <point x="-1" y="255" type="line"/>
      <point x="999" y="255" type="line"/>
      <point x="1003" y="274" type="line"/>
      <point x="3" y="274" type="line"/>
    </contour>
  </outline>
</glyph>
<glyph name="quoteright" format="2">
  <advance width="182"/>
  <unicode hex="2019"/>
  <outline>
    <contour>
      <point x="121" y="556" type="line"/>
      <point x="139" y="556" type="line"/>
      <point x="200" y="690" type="line" smooth="yes"/>
      <point x="205" y="701"/>
      <point x="209" y="708"/>
      <point x="209" y="719" type="curve" smooth="yes"/>
      <point x="209" y="733"/>
      <point x="197" y="745"/>
      <point x="183" y="745" type="curve" smooth="yes"/>
      <point x="169" y="745"/>
      <point x="157" y="733"/>
      <point x="157" y="719" type="curve" smooth="yes"/>
      <point x="157" y="705"/>
      <point x="169" y="693"/>
      <point x="183" y="693" type="curve"/>
      <point x="182" y="704" type="line"/>
    </contour>
  </outline>
</glyph>
<glyph name="naira" format="2">
  <advance width="850"/>
  <unicode hex="20A6"/>
  <outline>
    <contour>
      <point x="98" y="0" type="line"/>
      <point x="118" y="0" type="line"/>
      <point x="253" y="675" type="line"/>
      <point x="245" y="677" type="line"/>
      <point x="631" y="0" type="line"/>
      <point x="648" y="0" type="line"/>
      <point x="788" y="700" type="line"/>
      <point x="768" y="700" type="line"/>
      <point x="633" y="25" type="line"/>
      <point x="641" y="23" type="line"/>
      <point x="255" y="700" type="line"/>
      <point x="238" y="700" type="line"/>
    </contour>
    <contour>
      <point x="32" y="272" type="line"/>
      <point x="822" y="272" type="line"/>
      <point x="826" y="290" type="line"/>
      <point x="36" y="290" type="line"/>
    </contour>
    <contour>
      <point x="60" y="410" type="line"/>
      <point x="850" y="410" type="line"/>
      <point x="854" y="428" type="line"/>
      <point x="64" y="428" type="line"/>
    </contour>
  </outline>
</glyph>
<glyph name="hryvnia" format="2">
  <advance width="827"/>
  <unicode hex="20B4"/>
  <outline>
    <contour>
      <point x="154" y="42"/>
      <point x="249" y="-3"/>
      <point x="359" y="-3" type="curve" smooth="yes"/>
      <point x="456" y="-3"/>
      <point x="563" y="32"/>
      <point x="627" y="95" type="curve"/>
      <point x="615" y="110" type="line"/>
      <point x="556" y="49"/>
      <point x="452" y="16"/>
      <point x="359" y="16" type="curve" smooth="yes"/>
      <point x="260" y="16"/>
      <point x="174" y="54"/>
      <point x="174" y="143" type="curve" smooth="yes"/>
      <point x="174" y="193"/>
      <point x="201" y="247"/>
      <point x="254" y="281" type="curve"/>
      <point x="223" y="282" type="line"/>
      <point x="180" y="249"/>
      <point x="154" y="195"/>
      <point x="154" y="142" type="curve" smooth="yes"/>
    </contour>
    <contour>
      <point x="119" y="272" type="line"/>
      <point x="709" y="272" type="line"/>
      <point x="713" y="290" type="line"/>
      <point x="123" y="290" type="line"/>
    </contour>
    <contour>
      <point x="147" y="410" type="line"/>
      <point x="737" y="410" type="line"/>
      <point x="740" y="428" type="line"/>
      <point x="150" y="428" type="line"/>
    </contour>
    <contour>
      <point x="599" y="419" type="curve"/>
      <point x="630" y="418" type="line"/>
      <point x="671" y="452"/>
      <point x="696" y="506"/>
      <point x="696" y="557" type="curve" smooth="yes"/>
      <point x="696" y="657"/>
      <point x="604" y="703"/>
      <point x="497" y="703" type="curve" smooth="yes"/>
      <point x="423" y="703"/>
      <point x="341" y="681"/>
      <point x="278" y="639" type="curve"/>
      <point x="287" y="623" type="line"/>
      <point x="348" y="663"/>
      <point x="428" y="684"/>
      <point x="499" y="684" type="curve" smooth="yes"/>
      <point x="595" y="684"/>
      <point x="676" y="645"/>
      <point x="676" y="556" type="curve" smooth="yes"/>
      <point x="676" y="505"/>
      <point x="649" y="451"/>
    </contour>
  </outline>
</glyph>
<glyph name="bitcoin" format="2">
  <advance width="827"/>
  <unicode hex="20BF"/>
  <anchor x="359" y="0" name="bottom"/>
  <anchor x="499" y="700" name="top"/>
  <outline>
    <contour>
      <point x="264" y="9" type="line"/>
      <point x="238" y="-120" type="line"/>
      <point x="257" y="-120" type="line"/>
      <point x="283" y="9" type="line"/>
    </contour>
    <contour>
      <point x="419" y="9" type="line"/>
      <point x="393" y="-120" type="line"/>
      <point x="412" y="-120" type="line"/>
      <point x="438" y="9" type="line"/>
    </contour>
    <contour>
      <point x="419" y="692" type="line"/>
      <point x="445" y="820" type="line"/>
      <point x="426" y="820" type="line"/>
      <point x="400" y="692" type="line"/>
    </contour>
    <contour>
      <point x="574" y="692" type="line"/>
      <point x="600" y="820" type="line"/>
      <point x="581" y="820" type="line"/>
      <point x="555" y="692" type="line"/>
    </contour>
    <contour>
      <point x="115" y="0" type="line"/>
      <point x="416" y="0" type="line" smooth="yes"/>
      <point x="601" y="0"/>
      <point x="706" y="77"/>
      <point x="706" y="214" type="curve" smooth="yes"/>
      <point x="706" y="314"/>
      <point x="630" y="362"/>
      <point x="505" y="362" type="curve"/>
      <point x="486" y="351" type="line"/>
      <point x="623" y="351"/>
      <point x="735" y="421"/>
      <point x="735" y="559" type="curve" smooth="yes"/>
      <point x="735" y="652"/>
      <point x="657" y="700"/>
      <point x="532" y="700" type="curve" smooth="yes"/>
      <point x="255" y="700" type="line"/>
    </contour>
    <contour>
      <point x="139" y="19" type="line"/>
      <point x="271" y="681" type="line"/>
      <point x="532" y="681" type="line" smooth="yes"/>
      <point x="648" y="681"/>
      <point x="715" y="639"/>
      <point x="715" y="556" type="curve" smooth="yes"/>
      <point x="715" y="430"/>
      <point x="611" y="365"/>
      <point x="469" y="365" type="curve" smooth="yes"/>
      <point x="203" y="365" type="line"/>
      <point x="199" y="346" type="line"/>
      <point x="489" y="346" type="line" smooth="yes"/>
      <point x="619" y="346"/>
      <point x="686" y="308"/>
      <point x="686" y="212" type="curve" smooth="yes"/>
      <point x="686" y="88"/>
      <point x="591" y="19"/>
      <point x="420" y="19" type="curve" smooth="yes"/>
    </contour>
  </outline>
</glyph>
<glyph name="angstrom" format="2">
  <advance width="688"/>
  <unicode hex="212B"/>
  <anchor x="292" y="0" name="bottom"/>
  <anchor x="627" y="0" name="ogonek"/>
  <anchor x="473" y="903" name="top"/>
  <anchor x="194" y="700" name="topleft"/>
  <outline>
    <contour>
      <point x="-43" y="0" type="line"/>
      <point x="-19" y="0" type="line"/>
      <point x="435" y="684" type="line"/>
      <point x="426" y="684" type="line"/>
      <point x="606" y="0" type="line"/>
      <point x="627" y="0" type="line"/>
      <point x="442" y="700" type="line"/>
      <point x="422" y="700" type="line"/>
    </contour>
    <contour>
      <point x="106" y="211" type="line"/>
      <point x="561" y="211" type="line"/>
      <point x="555" y="230" type="line"/>
      <point x="120" y="230" type="line"/>
    </contour>
    <contour>
      <point x="467" y="780" type="curve" smooth="yes"/>
      <point x="521" y="780"/>
      <point x="560" y="821"/>
      <point x="560" y="870" type="curve" smooth="yes"/>
      <point x="560" y="920"/>
      <point x="520" y="963"/>
      <point x="467" y="963" type="curve" smooth="yes"/>
      <point x="414" y="963"/>
      <point x="375" y="920"/>
      <point x="375" y="870" type="curve" smooth="yes"/>
      <point x="375" y="821"/>
      <point x="413" y="780"/>
    </contour>
    <contour>
      <point x="467" y="799" type="curve" smooth="yes"/>
      <point x="424" y="799"/>
      <point x="395" y="830"/>
      <point x="395" y="870" type="curve" smooth="yes"/>
      <point x="395" y="911"/>
      <point x="425" y="944"/>
      <point x="467" y="944" type="curve" smooth="yes"/>
      <point x="509" y="944"/>
      <point x="540" y="910"/>
      <point x="540" y="870" type="curve" smooth="yes"/>
      <point x="540" y="831"/>
      <point x="510" y="799"/>
    </contour>
  </outline>
</glyph>
<glyph name="radical" format="2">
  <advance width="782"/>
  <unicode hex="221A"/>
  <outline>
    <contour>
      <point x="844" y="742" type="line"/>
      <point x="330" y="-179" type="line"/>
      <point x="339" y="-179" type="line"/>
      <point x="238" y="359" type="line"/>
      <point x="95" y="359" type="line"/>
      <point x="91" y="340" type="line"/>
      <point x="220" y="340" type="line"/>
      <point x="323" y="-194" type="line"/>
      <point x="343" y="-194" type="line"/>
      <point x="868" y="742" type="line"/>
    </contour>
  </outline>
</glyph>
<glyph name="integral" format="2">
  <advance width="356"/>
  <unicode hex="222B"/>
  <outline>
    <contour>
      <point x="-26" y="-200" type="curve" smooth="yes"/>
      <point x="54" y="-200"/>
      <point x="105" y="-156"/>
      <point x="122" y="-70" type="curve" smooth="yes"/>
      <point x="258" y="609" type="line" smooth="yes"/>
      <point x="274" y="691"/>
      <point x="315" y="726"/>
      <point x="386" y="726" type="curve" smooth="yes"/>
      <point x="420" y="726"/>
      <point x="449" y="715"/>
      <point x="468" y="695" type="curve"/>
      <point x="482" y="708" type="line"/>
      <point x="462" y="732"/>
      <point x="425" y="745"/>
      <point x="387" y="745" type="curve" smooth="yes"/>
      <point x="307" y="745"/>
      <point x="256" y="701"/>
      <point x="239" y="615" type="curve" smooth="yes"/>
      <point x="103" y="-64" type="line" smooth="yes"/>
      <point x="87" y="-146"/>
      <point x="46" y="-181"/>
      <point x="-25" y="-181" type="curve" smooth="yes"/>
      <point x="-59" y="-181"/>
      <point x="-88" y="-170"/>
      <point x="-107" y="-150" type="curve"/>
      <point x="-121" y="-163" type="line"/>
      <point x="-101" y="-187"/>
      <point x="-64" y="-200"/>
    </contour>
  </outline>
</glyph>
<glyph name="notequal" format="2">
  <advance width="560"/>
  <unicode hex="2260"/>
  <outline>
    <contour>
      <point x="94" y="100" type="line"/>
      <point x="118" y="100" type="line"/>
      <point x="504" y="600" type="line"/>
      <point x="480" y="600" type="line"/>
    </contour>
    <contour>
      <point x="70" y="231" type="line"/>
      <point x="480" y="231" type="line"/>
      <point x="484" y="250" type="line"/>
      <point x="74" y="250" type="line"/>
    </contour>
    <contour>
      <point x="114" y="450" type="line"/>
      <point x="524" y="450" type="line"/>
      <point x="528" y="469" type="line"/>
      <point x="118" y="469" type="line"/>
    </contour>
  </outline>
</glyph>
<glyph name="De-cy.ss01" format="2">
  <advance width="818"/>
  <outline>
    <contour>
      <point x="-40" y="-165" type="line"/>
      <point x="-20" y="-165" type="line"/>
      <point x="14" y="0" type="line"/>
      <point x="702" y="0" type="line"/>
      <point x="669" y="-165" type="line"/>
      <point x="689" y="-165" type="line"/>
      <point x="726" y="19" type="line"/>
      <point x="-2" y="19" type="line"/>
    </contour>
    <contour>
      <point x="83" y="0" type="line"/>
      <point x="103" y="0" type="line"/>
      <point x="184" y="406" type="line" smooth="yes"/>
      <point x="221" y="594"/>
      <point x="318" y="684"/>
      <point x="484" y="684" type="curve" smooth="yes"/>
      <point x="651" y="684"/>
      <point x="729" y="585"/>
      <point x="693" y="405" type="curve" smooth="yes"/>
      <point x="612" y="0" type="line"/>
      <point x="632" y="0" type="line"/>
      <point x="713" y="407" type="line" smooth="yes"/>
      <point x="750" y="593"/>
      <point x="664" y="703"/>
      <point x="484" y="703" type="curve" smooth="yes"/>
      <point x="309" y="703"/>
      <point x="204" y="608"/>
      <point x="164" y="408" type="curve" smooth="yes"/>
    </contour>
  </outline>
</glyph>
<glyph name="El-cy.ss01" format="2">
  <advance width="781"/>
  <anchor x="595" y="0" name="#exit"/>
  <anchor x="595" y="0" name="bottomleft"/>
  <outline>
    <contour>
      <point x="1" y="19" type="line"/>
      <point x="-3" y="0" type="line"/>
      <point x="92" y="0" type="line"/>
      <point x="96" y="19" type="line"/>
    </contour>
    <contour>
      <point x="82" y="0" type="line"/>
      <point x="101" y="0" type="line"/>
      <point x="182" y="406" type="line" smooth="yes"/>
      <point x="219" y="594"/>
      <point x="314" y="684"/>
      <point x="475" y="684" type="curve" smooth="yes"/>
      <point x="637" y="684"/>
      <point x="712" y="585"/>
      <point x="676" y="405" type="curve" smooth="yes"/>
      <point x="595" y="0" type="line"/>
      <point x="615" y="0" type="line"/>
      <point x="696" y="407" type="line" smooth="yes"/>
      <point x="733" y="593"/>
      <point x="650" y="703"/>
      <point x="475" y="703" type="curve" smooth="yes"/>
      <point x="305" y="703"/>
      <point x="203" y="608"/>
      <point x="163" y="408" type="curve" smooth="yes"/>
    </contour>
  </outline>
</glyph>
<glyph name="Hardsign-cy.ss01" format="2">
  <advance width="863"/>
  <outline>
    <contour>
      <point x="357" y="681" type="line"/>
      <point x="380" y="700" type="line"/>
      <point x="97" y="700" type="line"/>
      <point x="93" y="681" type="line"/>
    </contour>
    <contour>
      <point x="491" y="-3" type="curve" smooth="yes"/>
      <point x="677" y="-3"/>
      <point x="805" y="104"/>
      <point x="805" y="262" type="curve" smooth="yes"/>
      <point x="805" y="391"/>
      <point x="721" y="466"/>
      <point x="576" y="466" type="curve" smooth="yes"/>
      <point x="471" y="466"/>
      <point x="377" y="426"/>
      <point x="294" y="346" type="curve"/>
      <point x="301" y="329" type="line"/>
      <point x="379" y="406"/>
      <point x="472" y="446"/>
      <point x="575" y="446" type="curve" smooth="yes"/>
      <point x="708" y="446"/>
      <point x="784" y="379"/>
      <point x="784" y="261" type="curve" smooth="yes"/>
      <point x="784" y="116"/>
      <point x="666" y="17"/>
      <point x="492" y="17" type="curve" smooth="yes"/>
      <point x="333" y="17"/>
      <point x="260" y="99"/>
      <point x="288" y="238" type="curve" smooth="yes"/>
      <point x="380" y="700" type="line"/>
      <point x="360" y="700" type="line"/>
      <point x="268" y="238" type="line" smooth="yes"/>
      <point x="238" y="89"/>
      <point x="318" y="-3"/>
    </contour>
  </outline>
</glyph>
<glyph name="Schwa.ss01" format="2">
  <advance width="816"/>
  <anchor x="356" y="0" name="bottom"/>
  <anchor x="496" y="700" name="top"/>
  <outline>
    <contour>
      <point x="376" y="-3" type="curve" smooth="yes"/>
      <point x="624" y="-3"/>
      <point x="782" y="196"/>
      <point x="782" y="420" type="curve" smooth="yes"/>
      <point x="782" y="589"/>
      <point x="671" y="703"/>
      <point x="477" y="703" type="curve" smooth="yes"/>
      <point x="372" y="703"/>
      <point x="277" y="668"/>
      <point x="222" y="616" type="curve"/>
      <point x="234" y="602" type="line"/>
      <point x="290" y="653"/>
      <point x="372" y="684"/>
      <point x="475" y="684" type="curve" smooth="yes"/>
      <point x="661" y="684"/>
      <point x="762" y="577"/>
      <point x="762" y="420" type="curve" smooth="yes"/>
      <point x="762" y="201"/>
      <point x="607" y="16"/>
      <point x="378" y="16" type="curve" smooth="yes"/>
      <point x="233" y="16"/>
      <point x="132" y="84"/>
      <point x="102" y="191" type="curve"/>
      <point x="95" y="184" type="line"/>
      <point x="769" y="444" type="line"/>
      <point x="765" y="461" type="line"/>
      <point x="78" y="196" type="line"/>
      <point x="108" y="76"/>
      <point x="221" y="-3"/>
    </contour>
  </outline>
</glyph>
<glyph name="Udieresis.alt.BRACKET.133" format="2">
  <advance width="794"/>
  <outline>
    <contour>
      <point x="344" y="-3" type="curve" smooth="yes"/>
      <point x="511" y="-3"/>
      <point x="634" y="95"/>
      <point x="674" y="293" type="curve" smooth="yes"/>
      <point x="755" y="700" type="line"/>
      <point x="735" y="700" type="line"/>
      <point x="654" y="294" type="line" smooth="yes"/>
      <point x="616" y="107"/>
      <point x="507" y="16"/>
      <point x="348" y="16" type="curve" smooth="yes"/>
      <point x="189" y="16"/>
      <point x="116" y="107"/>
      <point x="154" y="294" type="curve" smooth="yes"/>
      <point x="235" y="700" type="line"/>
      <point x="215" y="700" type="line"/>
      <point x="134" y="293" type="line" smooth="yes"/>
      <point x="94" y="95"/>
      <point x="177" y="-3"/>
    </contour>
    <contour>
      <point x="397" y="651" type="curve" smooth="yes"/>
      <point x="412" y="651"/>
      <point x="424" y="664"/>
      <point x="424" y="679" type="curve" smooth="yes"/>
      <point x="424" y="692"/>
      <point x="412" y="703"/>
      <point x="399" y="703" type="curve" smooth="yes"/>
      <point x="384" y="703"/>
      <point x="372" y="690"/>
      <point x="372" y="675" type="curve" smooth="yes"/>
      <point x="372" y="662"/>
      <point x="384" y="651"/>
    </contour>
    <contour>
      <point x="561" y="651" type="curve" smooth="yes"/>
      <point x="576" y="651"/>
      <point x="588" y="664"/>
      <point x="588" y="679" type="curve" smooth="yes"/>
      <point x="588" y="692"/>
      <point x="576" y="703"/>
      <point x="563" y="703" type="curve" smooth="yes"/>
      <point x="548" y="703"/>
      <point x="536" y="690"/>
      <point x="536" y="675" type="curve" smooth="yes"/>
      <point x="536" y="662"/>
      <point x="548" y="651"/>
    </contour>
  </outline>
</glyph>
<glyph name="Uogonek.loclNAV.ss01" format="2">
  <advance width="800"/>
  <anchor x="345" y="0" name="bottom"/>
  <anchor x="615" y="0" name="ogonek"/>
  <anchor x="485" y="700" name="top"/>
  <anchor x="745" y="700" name="topright"/>
  <outline>
    <contour>
      <point x="311" y="-213" type="curve" smooth="yes"/>
      <point x="341" y="-213"/>
      <point x="369" y="-204"/>
      <point x="392" y="-186" type="curve"/>
      <point x="384" y="-169" type="line"/>
      <point x="364" y="-185"/>
      <point x="338" y="-194"/>
      <point x="313" y="-194" type="curve" smooth="yes"/>
      <point x="277" y="-194"/>
      <point x="256" y="-176"/>
      <point x="256" y="-142" type="curve" smooth="yes"/>
      <point x="256" y="-83"/>
      <point x="324" y="-23"/>
      <point x="448" y="7" type="curve" smooth="yes"/>
      <point x="531" y="27"/>
      <point x="596" y="81"/>
      <point x="639" y="176" type="curve"/>
      <point x="630" y="176" type="line"/>
      <point x="595" y="0" type="line"/>
      <point x="615" y="0" type="line"/>
      <point x="755" y="700" type="line"/>
      <point x="735" y="700" type="line"/>
      <point x="655" y="294" type="line" smooth="yes"/>
      <point x="618" y="106"/>
      <point x="521" y="16"/>
      <point x="361" y="16" type="curve" smooth="yes"/>
      <point x="195" y="16"/>
      <point x="120" y="116"/>
      <point x="155" y="295" type="curve" smooth="yes"/>
      <point x="235" y="700" type="line"/>
      <point x="215" y="700" type="line"/>
      <point x="135" y="293" type="line" smooth="yes"/>
      <point x="98" y="107"/>
      <point x="184" y="-3"/>
      <point x="361" y="-3" type="curve" smooth="yes"/>
      <point x="376" y="-3"/>
      <point x="390" y="-2"/>
      <point x="401" y="-1" type="curve"/>
      <point x="368" y="1" type="line"/>
      <point x="275" y="-43"/>
      <point x="236" y="-91"/>
      <point x="236" y="-144" type="curve" smooth="yes"/>
      <point x="236" y="-187"/>
      <point x="266" y="-213"/>
    </contour>
  </outline>
</glyph>
<glyph name="aogonek.loclNAV.sc" format="2">
  <advance width="563"/>
  <anchor x="342" y="559" name="top"/>
  <anchor x="149" y="559" name="topleft"/>
  <outline>
    <contour>
      <point x="-43" y="0" type="line"/>
      <point x="-20" y="0" type="line"/>
      <point x="94" y="169" type="line"/>
      <point x="106" y="188" type="line"/>
      <point x="345" y="544" type="line"/>
      <point x="337" y="544" type="line"/>
      <point x="431" y="188" type="line"/>
      <point x="436" y="169" type="line"/>
      <point x="481" y="0" type="line"/>
      <point x="502" y="0" type="line"/>
      <point x="352" y="559" type="line"/>
      <point x="333" y="559" type="line"/>
    </contour>
    <contour>
      <point x="208" y="-213" type="curve" smooth="yes"/>
      <point x="237" y="-213"/>
      <point x="265" y="-204"/>
      <point x="288" y="-186" type="curve"/>
      <point x="280" y="-169" type="line"/>
      <point x="260" y="-185"/>
      <point x="234" y="-194"/>
      <point x="209" y="-194" type="curve" smooth="yes"/>
      <point x="173" y="-194"/>
      <point x="152" y="-176"/>
      <point x="152" y="-142" type="curve" smooth="yes"/>
      <point x="152" y="-93"/>
      <point x="198" y="-50"/>
      <point x="290" y="-7" type="curve"/>
      <point x="283" y="9" type="line"/>
      <point x="176" y="-39"/>
      <point x="132" y="-88"/>
      <point x="132" y="-144" type="curve" smooth="yes"/>
      <point x="132" y="-187"/>
      <point x="162" y="-213"/>
    </contour>
    <contour>
      <point x="78" y="169" type="line"/>
      <point x="446" y="169" type="line"/>
      <point x="441" y="188" type="line"/>
      <point x="91" y="188" type="line"/>
    </contour>
  </outline>
</glyph>
<glyph name="brevecomb-cy" format="2">
  <anchor x="267" y="517" name="_top"/>
  <outline>
    <contour>
      <point x="289" y="604" type="curve" smooth="yes"/>
      <point x="363" y="604"/>
      <point x="423" y="649"/>
      <point x="438" y="717" type="curve"/>
      <point x="420" y="717" type="line"/>
      <point x="406" y="661"/>
      <point x="353" y="623"/>
      <point x="289" y="623" type="curve" smooth="yes"/>
      <point x="224" y="623"/>
      <point x="185" y="662"/>
      <point x="193" y="717" type="curve"/>
      <point x="175" y="717" type="line"/>
      <point x="164" y="652"/>
      <point x="212" y="604"/>
    </contour>
  </outline>
</glyph>
<glyph name="brevecomb.narrow" format="2">
  <anchor x="351" y="517" name="_top"/>
  <anchor x="378" y="650" name="top"/>
  <outline>
    <contour>
      <point x="381" y="604" type="curve" smooth="yes"/>
      <point x="448" y="604"/>
      <point x="490" y="644"/>
      <point x="498" y="717" type="curve"/>
      <point x="478" y="717" type="line"/>
      <point x="471" y="655"/>
      <point x="438" y="623"/>
      <point x="380" y="623" type="curve" smooth="yes"/>
      <point x="325" y="623"/>
      <point x="296" y="657"/>
      <point x="302" y="717" type="curve"/>
      <point x="284" y="717" type="line"/>
      <point x="275" y="649"/>
      <point x="314" y="604"/>
    </contour>
  </outline>
</glyph>
<glyph name="breveinvertedcomb.narrow" format="2">
  <anchor x="351" y="517" name="_top"/>
  <anchor x="378" y="650" name="top"/>
  <outline>
    <contour>
      <point x="262" y="607" type="curve"/>
      <point x="282" y="607" type="line"/>
      <point x="289" y="669"/>
      <point x="322" y="701"/>
      <point x="380" y="701" type="curve" smooth="yes"/>
      <point x="435" y="701"/>
      <point x="464" y="667"/>
      <point x="458" y="607" type="curve"/>
      <point x="476" y="607" type="line"/>
      <point x="485" y="675"/>
      <point x="446" y="720"/>
      <point x="379" y="720" type="curve" smooth="yes"/>
      <point x="312" y="720"/>
      <point x="270" y="680"/>
    </contour>
  </outline>
</glyph>
<glyph name="caroncomb.narrow" format="2">
  <anchor x="351" y="517" name="_top"/>
  <anchor x="378" y="650" name="top"/>
  <outline>
    <contour>
      <point x="364" y="607" type="line"/>
      <point x="394" y="607" type="line"/>
      <point x="504" y="717" type="line"/>
      <point x="476" y="717" type="line"/>
      <point x="378" y="621" type="line"/>
      <point x="382" y="621" type="line"/>
      <point x="304" y="717" type="line"/>
      <point x="278" y="717" type="line"/>
    </contour>
  </outline>
</glyph>
<glyph name="descender-cy.case.short" format="2">
  <advance width="273"/>
  <anchor x="18" y="0" name="_bottomleft"/>
  <outline>
    <contour>
      <point x="54" y="-165" type="line"/>
      <point x="74" y="-165" type="line"/>
      <point x="110" y="19" type="line"/>
      <point x="21" y="19" type="line"/>
      <point x="18" y="0" type="line"/>
      <point x="96" y="0" type="line"/>
      <point x="88" y="9" type="line"/>
    </contour>
  </outline>
</glyph>
<glyph name="dieresiscomb.narrow" format="2">
  <anchor x="351" y="517" name="_top"/>
  <anchor x="374" y="630" name="top"/>
  <outline>
    <contour>
      <point x="435" y="641" type="curve" smooth="yes"/>
      <point x="450" y="641"/>
      <point x="462" y="654"/>
      <point x="462" y="669" type="curve" smooth="yes"/>
      <point x="462" y="682"/>
      <point x="452" y="693"/>
      <point x="439" y="693" type="curve" smooth="yes"/>
      <point x="424" y="693"/>
      <point x="412" y="680"/>
      <point x="412" y="665" type="curve" smooth="yes"/>
      <point x="412" y="652"/>
      <point x="422" y="641"/>
    </contour>
    <contour>
      <point x="323" y="641" type="curve" smooth="yes"/>
      <point x="338" y="641"/>
      <point x="350" y="654"/>
      <point x="350" y="669" type="curve" smooth="yes"/>
      <point x="350" y="682"/>
      <point x="340" y="693"/>
      <point x="327" y="693" type="curve" smooth="yes"/>
      <point x="312" y="693"/>
      <point x="300" y="680"/>
      <point x="300" y="665" type="curve" smooth="yes"/>
      <point x="300" y="652"/>
      <point x="310" y="641"/>
    </contour>
  </outline>
</glyph>
<glyph name="dollar.BRACKET.170" format="2">
  <advance width="601"/>
  <outline>
    <contour>
      <point x="263" y="-3" type="curve" smooth="yes"/>
      <point x="410" y="-3"/>
      <point x="527" y="63"/>
      <point x="527" y="195" type="curve" smooth="yes"/>
      <point x="527" y="403"/>
      <point x="150" y="312"/>
      <point x="150" y="505" type="curve" smooth="yes"/>
      <point x="150" y="618"/>
      <point x="250" y="684"/>
      <point x="388" y="684" type="curve" smooth="yes"/>
      <point x="461" y="684"/>
      <point x="528" y="663"/>
      <point x="577" y="624" type="curve"/>
      <point x="590" y="641" type="line"/>
      <point x="541" y="681"/>
      <point x="464" y="703"/>
      <point x="388" y="703" type="curve" smooth="yes"/>
      <point x="242" y="703"/>
      <point x="131" y="633"/>
      <point x="131" y="503" type="curve" smooth="yes"/>
      <point x="131" y="292"/>
      <point x="507" y="384"/>
      <point x="507" y="194" type="curve" smooth="yes"/>
      <point x="507" y="79"/>
      <point x="406" y="16"/>
      <point x="264" y="16" type="curve" smooth="yes"/>
      <point x="173" y="16"/>
      <point x="79" y="55"/>
      <point x="42" y="108" type="curve"/>
      <point x="26" y="95" type="line"/>
      <point x="64" y="39"/>
      <point x="164" y="-3"/>
    </contour>
    <contour>
      <point x="216" y="-120" type="line"/>
      <point x="235" y="-120" type="line"/>
      <point x="261" y="8" type="line"/>
      <point x="242" y="8" type="line"/>
    </contour>
    <contour>
      <point x="379" y="695" type="line"/>
      <point x="398" y="695" type="line"/>
      <point x="423" y="820" type="line"/>
      <point x="404" y="820" type="line"/>
    </contour>
  </outline>
</glyph>
<glyph name="downArrow.case" format="2">
  <advance width="600"/>
  <outline>
    <contour>
      <point x="494" y="277" type="line"/>
      <point x="318" y="152" type="line"/>
      <point x="138" y="277" type="line"/>
      <point x="138" y="250" type="line"/>
      <point x="318" y="124" type="line"/>
      <point x="494" y="250" type="line"/>
    </contour>
    <contour>
      <point x="328" y="512" type="line"/>
      <point x="306" y="512" type="line"/>
      <point x="306" y="144" type="line"/>
      <point x="328" y="144" type="line"/>
    </contour>
  </outline>
</glyph>
<glyph name="e.ss01" format="2">
  <advance width="586"/>
  <guideline x="581" y="275" angle="190.7905"/>
  <anchor x="238" y="0" name="bottom"/>
  <anchor x="390" y="0" name="ogonek"/>
  <anchor x="337" y="517" name="top"/>
  <outline>
    <contour>
      <point x="278" y="-3" type="curve" smooth="yes"/>
      <point x="362" y="-3"/>
      <point x="437" y="30"/>
      <point x="479" y="80" type="curve"/>
      <point x="467" y="93" type="line"/>
      <point x="425" y="45"/>
      <point x="357" y="16"/>
      <point x="279" y="16" type="curve" smooth="yes"/>
      <point x="143" y="16"/>
      <point x="69" y="85"/>
      <point x="69" y="210" type="curve" smooth="yes"/>
      <point x="69" y="377"/>
      <point x="179" y="501"/>
      <point x="326" y="501" type="curve" smooth="yes"/>
      <point x="453" y="501"/>
      <point x="528" y="419"/>
      <point x="518" y="292" type="curve"/>
      <point x="528" y="306" type="line"/>
      <point x="57" y="216" type="line"/>
      <point x="61" y="198" type="line"/>
      <point x="536" y="289" type="line"/>
      <point x="545" y="431"/>
      <point x="465" y="520"/>
      <point x="326" y="520" type="curve" smooth="yes"/>
      <point x="167" y="520"/>
      <point x="50" y="386"/>
      <point x="50" y="210" type="curve" smooth="yes"/>
      <point x="50" y="74"/>
      <point x="135" y="-3"/>
    </contour>
  </outline>
</glyph>
<glyph name="eogonek.loclNAV.ss01" format="2">
  <advance width="586"/>
  <anchor x="346" y="517" name="top"/>
  <outline>
    <contour>
      <point x="49" y="210" type="curve" smooth="yes"/>
      <point x="49" y="74"/>
      <point x="134" y="-3"/>
      <point x="277" y="-3" type="curve" smooth="yes"/>
      <point x="286" y="-3"/>
      <point x="286" y="-3"/>
      <point x="301" y="-1" type="curve"/>
      <point x="304" y="5" type="line"/>
      <point x="203" y="-38"/>
      <point x="162" y="-91"/>
      <point x="162" y="-144" type="curve" smooth="yes"/>
      <point x="162" y="-187"/>
      <point x="192" y="-213"/>
      <point x="237" y="-213" type="curve" smooth="yes"/>
      <point x="267" y="-213"/>
      <point x="295" y="-204"/>
      <point x="318" y="-186" type="curve"/>
      <point x="310" y="-169" type="line"/>
      <point x="290" y="-185"/>
      <point x="264" y="-194"/>
      <point x="239" y="-194" type="curve" smooth="yes"/>
      <point x="203" y="-194"/>
      <point x="182" y="-176"/>
      <point x="182" y="-142" type="curve" smooth="yes"/>
      <point x="182" y="-86"/>
      <point x="243" y="-30"/>
      <point x="370" y="13" type="curve" smooth="yes"/>
      <point x="413" y="28"/>
      <point x="449" y="49"/>
      <point x="478" y="80" type="curve"/>
      <point x="466" y="93" type="line"/>
      <point x="424" y="45"/>
      <point x="356" y="16"/>
      <point x="278" y="16" type="curve" smooth="yes"/>
      <point x="142" y="16"/>
      <point x="68" y="85"/>
      <point x="68" y="210" type="curve" smooth="yes"/>
      <point x="68" y="377"/>
      <point x="178" y="501"/>
      <point x="327" y="501" type="curve" smooth="yes"/>
      <point x="454" y="501"/>
      <point x="528" y="419"/>
      <point x="518" y="292" type="curve"/>
      <point x="529" y="306" type="line"/>
      <point x="56" y="216" type="line"/>
      <point x="59" y="198" type="line"/>
      <point x="536" y="289" type="line"/>
      <point x="545" y="431"/>
      <point x="466" y="520"/>
      <point x="328" y="520" type="curve" smooth="yes"/>
      <point x="167" y="520"/>
      <point x="49" y="386"/>
    </contour>
  </outline>
</glyph>
<glyph name="f.sc" format="2">
  <advance width="531"/>
  <outline>
    <contour>
      <point x="142" y="277" type="line"/>
      <point x="138" y="258" type="line"/>
      <point x="453" y="258" type="line"/>
      <point x="457" y="277" type="line"/>
    </contour>
    <contour>
      <point x="90" y="0" type="line"/>
      <point x="198" y="540" type="line"/>
      <point x="546" y="540" type="line"/>
      <point x="550" y="559" type="line"/>
      <point x="182" y="559" type="line"/>
      <point x="70" y="0" type="line"/>
    </contour>
  </outline>
</glyph>
<glyph name="hardsign-cy.ss01" format="2">
  <advance width="632"/>
  <outline>
    <contour>
      <point x="232" y="498" type="line"/>
      <point x="250" y="517" type="line"/>
      <point x="48" y="517" type="line"/>
      <point x="44" y="498" type="line"/>
    </contour>
    <contour>
      <point x="329" y="-3" type="curve" smooth="yes"/>
      <point x="470" y="-3"/>
      <point x="574" y="96"/>
      <point x="574" y="211" type="curve" smooth="yes"/>
      <point x="574" y="306"/>
      <point x="509" y="360"/>
      <point x="401" y="360" type="curve" smooth="yes"/>
      <point x="317" y="360"/>
      <point x="246" y="327"/>
      <point x="200" y="268" type="curve"/>
      <point x="250" y="517" type="line"/>
      <point x="230" y="517" type="line"/>
      <point x="163" y="183" type="line" smooth="yes"/>
      <point x="140" y="69"/>
      <point x="208" y="-3"/>
    </contour>
    <contour>
      <point x="331" y="16" type="curve" smooth="yes"/>
      <point x="216" y="16"/>
      <point x="164" y="83"/>
      <point x="183" y="184" type="curve" smooth="yes"/>
      <point x="193" y="236" type="line"/>
      <point x="240" y="304"/>
      <point x="313" y="341"/>
      <point x="399" y="341" type="curve" smooth="yes"/>
      <point x="495" y="341"/>
      <point x="554" y="295"/>
      <point x="554" y="211" type="curve" smooth="yes"/>
      <point x="554" y="106"/>
      <point x="463" y="16"/>
    </contour>
  </outline>
</glyph>
<glyph name="iacute_j.loclNLD" format="2">
  <advance width="505"/>
  <outline>
    <contour>
      <point x="63" y="0" type="line"/>
      <point x="83" y="0" type="line"/>
      <point x="186" y="517" type="line"/>
      <point x="166" y="517" type="line"/>
    </contour>
    <contour>
      <point x="149" y="607" type="line"/>
      <point x="179" y="607" type="line"/>
      <point x="351" y="717" type="line"/>
      <point x="311" y="717" type="line"/>
    </contour>
    <contour>
      <point x="177" y="-197" type="curve" smooth="yes"/>
      <point x="256" y="-197"/>
      <point x="309" y="-146"/>
      <point x="324" y="-70" type="curve" smooth="yes"/>
      <point x="441" y="517" type="line"/>
      <point x="421" y="517" type="line"/>
      <point x="305" y="-65" type="line" smooth="yes"/>
      <point x="290" y="-138"/>
      <point x="246" y="-178"/>
      <point x="179" y="-178" type="curve" smooth="yes"/>
      <point x="143" y="-178"/>
      <point x="115" y="-167"/>
      <point x="97" y="-146" type="curve"/>
      <point x="80" y="-160" type="line"/>
      <point x="99" y="-185"/>
      <point x="137" y="-197"/>
    </contour>
    <contour>
      <point x="404" y="607" type="line"/>
      <point x="434" y="607" type="line"/>
      <point x="606" y="717" type="line"/>
      <point x="566" y="717" type="line"/>
    </contour>
  </outline>
</glyph>
<glyph name="nje-cy.ss01" format="2">
  <advance width="921"/>
  <outline>
    <contour>
      <point x="66" y="0" type="line"/>
      <point x="86" y="0" type="line"/>
      <point x="141" y="276" type="line"/>
      <point x="519" y="276" type="line"/>
      <point x="523" y="294" type="line"/>
      <point x="145" y="294" type="line"/>
      <point x="189" y="517" type="line"/>
      <point x="169" y="517" type="line"/>
    </contour>
    <contour>
      <point x="638" y="17" type="curve" smooth="yes"/>
      <point x="533" y="17"/>
      <point x="487" y="69"/>
      <point x="504" y="154" type="curve" smooth="yes"/>
      <point x="529" y="276" type="line"/>
      <point x="704" y="276" type="line" smooth="yes"/>
      <point x="798" y="276"/>
      <point x="845" y="240"/>
      <point x="845" y="174" type="curve" smooth="yes"/>
      <point x="845" y="84"/>
      <point x="757" y="17"/>
    </contour>
    <contour>
      <point x="638" y="-3" type="curve" smooth="yes"/>
      <point x="769" y="-3"/>
      <point x="865" y="74"/>
      <point x="865" y="175" type="curve" smooth="yes"/>
      <point x="865" y="252"/>
      <point x="808" y="295"/>
      <point x="704" y="295" type="curve" smooth="yes"/>
      <point x="533" y="295" type="line"/>
      <point x="577" y="515" type="line"/>
      <point x="557" y="519" type="line"/>
      <point x="484" y="158" type="line" smooth="yes"/>
      <point x="464" y="60"/>
      <point x="521" y="-3"/>
    </contour>
  </outline>
</glyph>
<glyph name="numero.ss01" format="2">
  <advance width="1180"/>
  <outline>
    <contour>
      <point x="811" y="272" type="line"/>
      <point x="1097" y="272" type="line"/>
      <point x="1101" y="291" type="line"/>
      <point x="815" y="291" type="line"/>
    </contour>
    <contour>
      <point x="987" y="391" type="curve" smooth="yes"/>
      <point x="1096" y="391"/>
      <point x="1174" y="470"/>
      <point x="1174" y="571" type="curve" smooth="yes"/>
      <point x="1174" y="651"/>
      <point x="1117" y="703"/>
      <point x="1032" y="703" type="curve" smooth="yes"/>
      <point x="922" y="703"/>
      <point x="844" y="624"/>
      <point x="844" y="523" type="curve" smooth="yes"/>
      <point x="844" y="443"/>
      <point x="901" y="391"/>
    </contour>
    <contour>
      <point x="989" y="409" type="curve" smooth="yes"/>
      <point x="914" y="409"/>
      <point x="863" y="454"/>
      <point x="863" y="523" type="curve" smooth="yes"/>
      <point x="863" y="612"/>
      <point x="932" y="685"/>
      <point x="1030" y="685" type="curve" smooth="yes"/>
      <point x="1104" y="685"/>
      <point x="1155" y="640"/>
      <point x="1155" y="571" type="curve" smooth="yes"/>
      <point x="1155" y="482"/>
      <point x="1086" y="409"/>
    </contour>
    <contour>
      <point x="488" y="703" type="curve" smooth="yes"/>
      <point x="362" y="703"/>
      <point x="260" y="647"/>
      <point x="202" y="526" type="curve"/>
      <point x="206" y="524" type="line"/>
      <point x="241" y="700" type="line"/>
      <point x="221" y="700" type="line"/>
      <point x="81" y="0" type="line"/>
      <point x="101" y="0" type="line"/>
      <point x="186" y="423" type="line" smooth="yes"/>
      <point x="222" y="601"/>
      <point x="335" y="684"/>
      <point x="486" y="684" type="curve" smooth="yes"/>
      <point x="645" y="684"/>
      <point x="719" y="592"/>
      <point x="683" y="410" type="curve" smooth="yes"/>
      <point x="601" y="0" type="line"/>
      <point x="621" y="0" type="line"/>
      <point x="703" y="411" type="line" smooth="yes"/>
      <point x="741" y="603"/>
      <point x="654" y="703"/>
    </contour>
  </outline>
</glyph>
<glyph name="ogonekcomb.i" format="2">
  <anchor x="249" y="0" name="_ogonek"/>
  <outline>
    <contour>
      <point x="201" y="-213" type="curve" smooth="yes"/>
      <point x="222" y="-213"/>
      <point x="242" y="-204"/>
      <point x="254" y="-189" type="curve"/>
      <point x="245" y="-175" type="line"/>
      <point x="234" y="-187"/>
      <point x="221" y="-195"/>
      <point x="204" y="-195" type="curve" smooth="yes"/>
      <point x="181" y="-195"/>
      <point x="165" y="-181"/>
      <point x="165" y="-150" type="curve" smooth="yes"/>
      <point x="165" y="-101"/>
      <point x="196" y="-49"/>
      <point x="249" y="0" type="curve"/>
      <point x="241" y="14" type="line"/>
      <point x="188" y="-30"/>
      <point x="145" y="-91"/>
      <point x="145" y="-151" type="curve" smooth="yes"/>
      <point x="145" y="-190"/>
      <point x="168" y="-213"/>
    </contour>
  </outline>
</glyph>
<glyph name="question.sc" format="2">
  <advance width="507"/>
  <outline>
    <contour>
      <point x="206" y="168" type="curve"/>
      <point x="226" y="168" type="line"/>
      <point x="255" y="307"/>
      <point x="456" y="296"/>
      <point x="456" y="449" type="curve" smooth="yes"/>
      <point x="456" y="521"/>
      <point x="391" y="562"/>
      <point x="286" y="562" type="curve" smooth="yes"/>
      <point x="195" y="562"/>
      <point x="119" y="539"/>
      <point x="67" y="496" type="curve"/>
      <point x="78" y="481" type="line"/>
      <point x="133" y="523"/>
      <point x="199" y="543"/>
      <point x="283" y="543" type="curve" smooth="yes"/>
      <point x="381" y="543"/>
      <point x="436" y="509"/>
      <point x="436" y="447" type="curve" smooth="yes"/>
      <point x="436" y="309"/>
      <point x="238" y="323"/>
    </contour>
    <contour>
      <point x="190" y="-3" type="curve" smooth="yes"/>
      <point x="204" y="-3"/>
      <point x="216" y="9"/>
      <point x="216" y="23" type="curve" smooth="yes"/>
      <point x="216" y="37"/>
      <point x="204" y="49"/>
      <point x="190" y="49" type="curve" smooth="yes"/>
      <point x="176" y="49"/>
      <point x="164" y="37"/>
      <point x="164" y="23" type="curve" smooth="yes"/>
      <point x="164" y="9"/>
      <point x="176" y="-3"/>
    </contour>
  </outline>
</glyph>
<glyph name="ringcomb_acutecomb" format="2">
  <anchor x="351" y="517" name="_top"/>
  <anchor x="392" y="720" name="top"/>
  <outline>
    <contour>
      <point x="386" y="597" type="curve" smooth="yes"/>
      <point x="440" y="597"/>
      <point x="479" y="638"/>
      <point x="479" y="687" type="curve" smooth="yes"/>
      <point x="479" y="737"/>
      <point x="439" y="780"/>
      <point x="386" y="780" type="curve" smooth="yes"/>
      <point x="333" y="780"/>
      <point x="294" y="737"/>
      <point x="294" y="687" type="curve" smooth="yes"/>
      <point x="294" y="638"/>
      <point x="332" y="597"/>
    </contour>
    <contour>
      <point x="386" y="616" type="curve" smooth="yes"/>
      <point x="343" y="616"/>
      <point x="314" y="647"/>
      <point x="314" y="687" type="curve" smooth="yes"/>
      <point x="314" y="728"/>
      <point x="344" y="761"/>
      <point x="386" y="761" type="curve" smooth="yes"/>
      <point x="428" y="761"/>
      <point x="459" y="727"/>
      <point x="459" y="687" type="curve" smooth="yes"/>
      <point x="459" y="648"/>
      <point x="429" y="616"/>
    </contour>
    <contour>
      <point x="454" y="745" type="line"/>
      <point x="539" y="825" type="line"/>
      <point x="522" y="838" type="line"/>
      <point x="433" y="754" type="line"/>
    </contour>
  </outline>
</glyph>
<glyph name="schwa.sc" format="2">
  <advance width="665"/>
  <anchor x="282" y="0" name="bottom"/>
  <anchor x="392" y="559" name="top"/>
  <outline>
    <contour>
      <point x="296" y="-3" type="curve" smooth="yes"/>
      <point x="493" y="-3"/>
      <point x="618" y="155"/>
      <point x="618" y="335" type="curve" smooth="yes"/>
      <point x="618" y="471"/>
      <point x="530" y="562"/>
      <point x="375" y="562" type="curve" smooth="yes"/>
      <point x="292" y="562"/>
      <point x="217" y="534"/>
      <point x="172" y="492" type="curve"/>
      <point x="183" y="477" type="line"/>
      <point x="228" y="518"/>
      <point x="293" y="543"/>
      <point x="373" y="543" type="curve" smooth="yes"/>
      <point x="519" y="543"/>
      <point x="599" y="459"/>
      <point x="599" y="335" type="curve" smooth="yes"/>
      <point x="599" y="163"/>
      <point x="478" y="16"/>
      <point x="298" y="16" type="curve" smooth="yes"/>
      <point x="159" y="16"/>
      <point x="72" y="98"/>
      <point x="72" y="220" type="curve" smooth="yes"/>
      <point x="72" y="239"/>
      <point x="74" y="258"/>
      <point x="78" y="279" type="curve"/>
      <point x="69" y="271" type="line"/>
      <point x="596" y="271" type="line"/>
      <point x="600" y="289" type="line"/>
      <point x="60" y="289" type="line"/>
      <point x="54" y="262"/>
      <point x="52" y="241"/>
      <point x="52" y="219" type="curve" smooth="yes"/>
      <point x="52" y="89"/>
      <point x="143" y="-3"/>
    </contour>
  </outline>
</glyph>
<glyph name="slash.case" format="2">
  <advance width="300"/>
  <outline>
    <contour>
      <point x="-92" y="-100" type="line"/>
      <point x="-70" y="-100" type="line"/>
      <point x="446" y="842" type="line"/>
      <point x="424" y="842" type="line"/>
    </contour>
  </outline>
</glyph>
<glyph name="uogonek.loclNAV" format="2">
  <advance width="664"/>
  <anchor x="278" y="0" name="bottom"/>
  <anchor x="498" y="0" name="ogonek"/>
  <anchor x="381" y="517" name="top"/>
  <anchor x="591" y="517" name="topright"/>
  <outline>
    <contour>
      <point x="264" y="-213" type="curve" smooth="yes"/>
      <point x="293" y="-213"/>
      <point x="321" y="-204"/>
      <point x="344" y="-186" type="curve"/>
      <point x="336" y="-169" type="line"/>
      <point x="316" y="-185"/>
      <point x="290" y="-194"/>
      <point x="265" y="-194" type="curve" smooth="yes"/>
      <point x="229" y="-194"/>
      <point x="208" y="-176"/>
      <point x="208" y="-142" type="curve" smooth="yes"/>
      <point x="208" y="-88"/>
      <point x="256" y="-37"/>
      <point x="361" y="8" type="curve" smooth="yes"/>
      <point x="430" y="37"/>
      <point x="478" y="65"/>
      <point x="518" y="155" type="curve"/>
      <point x="508" y="150" type="line"/>
      <point x="478" y="0" type="line"/>
      <point x="498" y="0" type="line"/>
      <point x="601" y="517" type="line"/>
      <point x="581" y="517" type="line"/>
      <point x="524" y="230" type="line" smooth="yes"/>
      <point x="496" y="90"/>
      <point x="405" y="16"/>
      <point x="275" y="16" type="curve" smooth="yes"/>
      <point x="148" y="16"/>
      <point x="96" y="91"/>
      <point x="120" y="212" type="curve" smooth="yes"/>
      <point x="181" y="517" type="line"/>
      <point x="161" y="517" type="line"/>
      <point x="100" y="212" type="line" smooth="yes"/>
      <point x="75" y="86"/>
      <point x="131" y="-3"/>
      <point x="273" y="-3" type="curve" smooth="yes"/>
      <point x="286" y="-3"/>
      <point x="299" y="-2"/>
      <point x="312" y="-1" type="curve"/>
      <point x="356" y="21" type="line"/>
      <point x="237" y="-22"/>
      <point x="188" y="-85"/>
      <point x="188" y="-144" type="curve" smooth="yes"/>
      <point x="188" y="-187"/>
      <point x="218" y="-213"/>
    </contour>
  </outline>
</glyph>
<glyph name="uogonek.loclNAV.sc.ss01" format="2">
  <advance width="678"/>
  <anchor x="397" y="559" name="top"/>
  <anchor x="606" y="559" name="topright"/>
  <outline>
    <contour>
      <point x="254" y="-213" type="curve" smooth="yes"/>
      <point x="283" y="-213"/>
      <point x="311" y="-204"/>
      <point x="334" y="-186" type="curve"/>
      <point x="326" y="-169" type="line"/>
      <point x="306" y="-185"/>
      <point x="280" y="-194"/>
      <point x="255" y="-194" type="curve" smooth="yes"/>
      <point x="219" y="-194"/>
      <point x="198" y="-176"/>
      <point x="198" y="-142" type="curve" smooth="yes"/>
      <point x="198" y="-88"/>
      <point x="259" y="-29"/>
      <point x="372" y="8" type="curve" smooth="yes"/>
      <point x="429" y="27"/>
      <point x="483" y="66"/>
      <point x="515" y="138" type="curve"/>
      <point x="511" y="140" type="line"/>
      <point x="483" y="0" type="line"/>
      <point x="503" y="0" type="line"/>
      <point x="616" y="559" type="line"/>
      <point x="596" y="559" type="line"/>
      <point x="530" y="235" type="line" smooth="yes"/>
      <point x="500" y="87"/>
      <point x="416" y="17"/>
      <point x="289" y="17" type="curve" smooth="yes"/>
      <point x="156" y="17"/>
      <point x="104" y="95"/>
      <point x="132" y="236" type="curve" smooth="yes"/>
      <point x="197" y="559" type="line"/>
      <point x="177" y="559" type="line"/>
      <point x="112" y="235" type="line" smooth="yes"/>
      <point x="82" y="86"/>
      <point x="144" y="-3"/>
      <point x="288" y="-3" type="curve" smooth="yes"/>
      <point x="295" y="-3"/>
      <point x="313" y="-3"/>
      <point x="323" y="-2" type="curve"/>
      <point x="306" y="1" type="line"/>
      <point x="216" y="-42"/>
      <point x="178" y="-91"/>
      <point x="178" y="-144" type="curve" smooth="yes"/>
      <point x="178" y="-187"/>
      <point x="208" y="-213"/>
    </contour>
  </outline>
</glyph>
<glyph name="upArrow.case" format="2">
  <advance width="600"/>
  <outline>
    <contour>
      <point x="122" y="364" type="line"/>
      <point x="298" y="489" type="line"/>
      <point x="478" y="364" type="line"/>
      <point x="478" y="391" type="line"/>
      <point x="298" y="517" type="line"/>
      <point x="122" y="391" type="line"/>
    </contour>
    <contour>
      <point x="288" y="129" type="line"/>
      <point x="310" y="129" type="line"/>
      <point x="310" y="497" type="line"/>
      <point x="288" y="497" type="line"/>
    </contour>
  </outline>
</glyph>
<glyph name="v.sc" format="2">
  <advance width="576"/>
  <outline>
    <contour>
      <point x="224" y="0" type="line"/>
      <point x="244" y="0" type="line"/>
      <point x="612" y="559" type="line"/>
      <point x="588" y="559" type="line"/>
      <point x="231" y="16" type="line"/>
      <point x="240" y="16" type="line"/>
      <point x="104" y="559" type="line"/>
      <point x="83" y="559" type="line"/>
    </contour>
  </outline>
</glyph>
<glyph name="zhe-cy.loclBGR" format="2">
  <advance width="778"/>
  <outline>
    <contour>
      <point x="676" y="0" type="line"/>
      <point x="698" y="0" type="line"/>
      <point x="544" y="271" type="line"/>
      <point x="527" y="263" type="line"/>
    </contour>
    <contour>
      <point x="390" y="254" type="line"/>
      <point x="545" y="254" type="line"/>
      <point x="549" y="272" type="line"/>
      <point x="394" y="272" type="line"/>
    </contour>
    <contour>
      <point x="545" y="257" type="line"/>
      <point x="788" y="517" type="line"/>
      <point x="763" y="517" type="line"/>
      <point x="526" y="263" type="line"/>
    </contour>
    <contour>
      <point x="2" y="0" type="line"/>
      <point x="255" y="263" type="line"/>
      <point x="237" y="271" type="line"/>
      <point x="-25" y="0" type="line"/>
    </contour>
    <contour>
      <point x="347" y="0" type="line"/>
      <point x="496" y="742" type="line"/>
      <point x="476" y="742" type="line"/>
      <point x="327" y="0" type="line"/>
    </contour>
    <contour>
      <point x="385" y="254" type="line"/>
      <point x="389" y="272" type="line"/>
      <point x="236" y="272" type="line"/>
      <point x="232" y="254" type="line"/>
    </contour>
    <contour>
      <point x="235" y="257" type="line"/>
      <point x="253" y="263" type="line"/>
      <point x="117" y="517" type="line"/>
      <point x="95" y="517" type="line"/>
    </contour>
  </outline>
</glyph>
